<?xml version="1.0" encoding="UTF-8" standalone="no"?>
<!-- Created with Inkscape (http://www.inkscape.org/) -->

<svg
   width="126.40734mm"
   height="129.61298mm"
   viewBox="0 0 126.40734 129.61298"
   version="1.1"
   id="svg1"
   xml:space="preserve"
   xmlns="http://www.w3.org/2000/svg"
   xmlns:svg="http://www.w3.org/2000/svg"><defs
     id="defs1" /><g
     id="layer1"
     transform="translate(134.12752,42.601719)"><path
       style="fill:#ffffff"
       d="m -14.429852,86.581698 c -3.67458,-1.48191 -6.95771,-4.99468 -9.59069,-10.261541 -1.98167,-3.96401 -3.0723,-7.829448 -4.29247,-15.213538 -0.81691,-4.94367 -1.37176,-7.50535 -1.698869,-7.8435 -0.39298,-0.40624 -4.25365,-1.26612 -8.62735,-1.92154 -2.879602,-0.43152 -18.666605,-2.14121 -19.771618,-2.14121 -0.157338,0 -1.563247,1.91686 -3.124241,4.25969 -4.778628,7.17205 -7.326066,10.07596 -10.897907,12.42288 -2.70412,1.77677 -4.647315,2.39639 -8.010403,2.55425 -4.59881,0.21586 -8.66506,-1.15584 -12.588267,-4.2465 -2.99084,-2.35615 -4.26867,-4.11888 -7.510203,-10.36011 -1.20928,-2.32834 -2.70022,-5.18584 -3.3132,-6.35 -4.75455,-9.02973 -7.71322,-14.57154 -11.43318,-21.4152 -4.71644,-8.67689 -5.61598,-10.62977 -6.64046,-14.41633 -0.63273,-2.3386304 -0.68533,-2.9493684 -0.68532,-7.9570084 2e-5,-5.16056 0.0475,-5.67026 0.97699,-10.49568 0.53734,-2.78944 0.97697,-5.2004596 0.97697,-5.3578096 0,-0.16184 -0.50698,-0.2861 -1.16735,-0.2861 -3.22596,0 -7.57201,-1.45692 -9.80549,-3.287094 -1.18653,-0.972274 -2.61655,-3.334377 -2.45732,-4.059008 0.0651,-0.29649 0.31666,0.03075 0.71008,0.923887 1.4455,3.281587 5.47381,5.453205 11.19873,6.037125 l 1.78594,0.18216 v -0.67607 c 0,-0.60871 -0.12524,-0.6913 -1.25677,-0.8289 -6.28965,-0.76482 -10.31459,-2.891007 -11.91257,-6.292859 -0.66254,-1.410439 -0.68829,-1.524237 -0.34493,-1.524237 0.13423,0 0.39083,0.444717 0.57022,0.988261 0.18443,0.558826 0.9694,1.630018 1.80645,2.465134 2.24709,2.241882 5.43909,3.546171 9.48395,3.875251 1.91148,0.15552 1.91823,0.15374 1.91823,-0.505588 0,-0.626029 -0.0991,-0.670867 -1.84102,-0.832758 -5.23156,-0.486223 -10.13682,-3.299483 -11.51838,-6.606013 -0.51478,-1.232049 -0.11524,-1.28102 0.46827,-0.05739 1.48042,3.104488 5.47695,5.446397 10.62649,6.226981 2.13461,0.32357 2.52922,0.244262 2.52922,-0.508319 0,-0.374063 -0.28412,-0.517155 -1.29244,-0.650914 -5.545,-0.735569 -10.3113,-3.325203 -11.9185,-6.475574 -0.60903,-1.193813 -0.64822,-1.35865 -0.32299,-1.35865 0.12342,0 0.44267,0.48404 0.70945,1.075644 0.64476,1.429834 2.93948,3.488126 4.9668,4.455077 1.58555,0.756243 4.82215,1.685156 6.8655,1.970414 0.88639,0.123744 0.99214,0.07681 0.99177,-0.440165 -3.6e-4,-0.516859 -0.30569,-0.652295 -2.8581,-1.267798 -4.74785,-1.144925 -8.07074,-3.070545 -9.79771,-5.677787 -0.84727,-1.279153 -1.00481,-1.702885 -0.63311,-1.702885 0.11243,0 0.43433,0.426936 0.71535,0.948747 0.73886,1.371984 3.07123,3.398519 4.97411,4.321869 1.77272,0.860195 5.93688,2.137717 6.96801,2.137717 0.43202,0 0.63186,-0.150593 0.63186,-0.47615 0,-0.376616 -0.53925,-0.626879 -2.57968,-1.197214 -3.17422,-0.887244 -5.84905,-2.134797 -7.65434,-3.570017 -1.44778,-1.151 -3.10204,-3.299472 -2.93238,-3.808439 0.0554,-0.166257 0.3593,0.11605 0.6753,0.627349 1.83842,2.974619 5.78531,5.306847 11.51511,6.804306 0.94227,0.24626 1.00298,0.227103 0.92604,-0.292224 -0.0646,-0.436051 -0.53826,-0.710905 -2.19901,-1.276038 -5.17215,-1.760027 -8.63574,-3.976591 -10.2333,-6.548927 -0.81931,-1.319234 -0.4195,-1.278674 0.6262,0.06353 1.30167,1.670761 3.09752,3.083759 5.35908,4.216611 2.14946,1.076699 6.49698,2.626482 6.49698,2.31601 0,-0.506621 -0.78647,-1.111825 -2.11666,-1.62882 -4.2393,-1.647644 -8.23252,-4.277502 -9.98619,-6.576717 -1.35293,-1.773815 -0.77766,-1.642903 0.89298,0.20321 2.13138,2.355253 5.48823,4.486925 9.64745,6.126335 1.16769,0.46026 1.32722,0.473669 1.25188,0.105225 -0.0475,-0.232238 -1.51508,-1.198761 -3.26133,-2.147827 -1.74625,-0.949066 -3.97597,-2.317977 -4.95494,-3.042024 -1.98641,-1.469159 -4.25116,-3.845463 -4.02055,-4.218595 0.0826,-0.133652 0.59205,0.291714 1.13211,0.945259 1.42992,1.730406 4.11621,3.770812 7.22961,5.491357 3.29595,1.82142 3.71616,1.997209 3.51383,1.469938 -0.0818,-0.213052 -1.88582,-1.554622 -4.00903,-2.981267 -3.79976,-2.553164 -8.0616,-6.261037 -7.65909,-6.663543 0.11309,-0.113094 0.70342,0.34743 1.31184,1.023387 0.60842,0.675957 1.79856,1.778109 2.64476,2.449227 1.58062,1.25358 6.93155,4.913146 7.18389,4.913146 0.53746,0 -0.32496,-0.822952 -3.6292,-3.463121 -3.91946,-3.131742 -7.34219,-6.23547 -7.34219,-6.657892 0,-0.134538 0.80367,0.493419 1.78594,1.395461 0.98226,0.902041 3.45281,2.958151 5.4901,4.569132 3.03711,2.401587 3.5324,2.717955 2.75036,1.756801 -0.52459,-0.644741 -2.251,-2.3512 -3.83646,-3.792133 -5.34037,-4.853562 -5.98616,-5.477301 -5.8313,-5.632166 0.16809,-0.168089 3.68959,2.924188 7.41925,6.514944 2.23242,2.14927 2.30816,2.197971 1.46722,0.94335 -0.48769,-0.727604 -2.657,-3.09022 -4.82069,-5.250257 -2.16369,-2.160038 -3.87713,-3.984192 -3.80764,-4.053676 0.18454,-0.184543 4.59718,3.833623 6.50361,5.922206 1.52203,1.667458 1.58719,1.710105 0.92227,0.603602 -1.60031,-2.663128 -4.51786,-5.901621 -6.85204,-7.605804 -0.49819,-0.36373 -0.6417,-0.582637 -0.38542,-0.587898 0.89591,-0.01839 4.97764,3.978236 6.8186,6.676424 0.42044,0.616222 1.43581,2.437748 2.25636,4.047836 2.4998,4.905064 3.91641,6.848045 8.06141,11.056793 1.55552,1.579449 4.42891,4.258355 6.38531,5.953121 7.2169,6.2517997 7.739653,6.7574397 8.789033,8.5013197 0.56784,0.94366 1.26551,2.47032 1.55036,3.39258 1.68458,5.45402 1.40729,10.22668 -1.33265,22.9374993 -1.743413,8.08786 -2.566663,12.50949 -2.791923,14.9953 l -0.17869,1.97195 1.817973,1.075 c 6.85481,4.05335 15.749627,7.00655 26.953394,8.94889 5.415092,0.93878 7.987751,1.07585 10.451042,0.55681 2.56865,-0.54124 5.756831,-2.13028 8.003371,-3.98901 4.537348,-3.75409 7.09541,-4.77352 11.978235,-4.77352 3.058444,0 3.248124,0.0333 4.940224,0.86627 3.13836,1.54501 5.04,4.23999 7.0973,10.05821 0.998089,2.82267 1.300919,3.12006 4.259839,4.18319 10.06307,3.61561 16.6048805,10.72786 18.2117105,19.799768 0.80207,4.52835 -0.44706,9.632451 -3.0314305,12.386831 -1.04886,1.11784 -1.73391,1.22509 -3.43737,0.5381 z m -0.92604,-1.08115 c -2.35801,-1.60113 -5.21953,-5.11584 -7.08609,-8.703601 -1.76829,-3.39888 -2.94522,-6.70595 -4.31277,-12.118458 -0.69858,-2.76489 -1.27713,-4.83935 -1.28565,-4.6099 -0.0363,0.9784 1.65073,8.90412 2.35234,11.051128 2.05779,6.2971 5.36871,11.254621 9.2703,13.880651 0.79842,0.53739 1.5128,0.97083 1.5875,0.9632 0.0747,-0.008 -0.16183,-0.21599 -0.52563,-0.46302 z m -0.25521,-1.27668 c -2.72212,-2.52019 -6.0153,-7.947111 -8.10329,-13.353611 -0.48349,-1.251908 -1.53299,-4.407358 -2.33223,-7.012108 -0.79923,-2.60475 -1.45921,-4.5762 -1.46663,-4.38101 -0.0294,0.77391 2.17251,9.20306 3.00441,11.501218 1.53512,4.24085 3.74961,8.242771 6.22531,11.250121 0.8076,0.98104 3.79603,3.48439 4.15956,3.48439 0.0666,0 -0.60257,-0.67005 -1.48713,-1.489 z m 0.83829,-0.19853 c -3.40709,-3.6025 -7.04297,-10.870781 -10.90523,-21.800059 -0.47681,-1.34926 -0.91768,-2.40245 -0.97972,-2.34041 -0.16192,0.16192 2.42877,8.52381 3.39255,10.950008 2.21496,5.57592 5.74679,11.282301 8.3797,13.539071 0.68717,0.589 1.29644,1.07168 1.35393,1.07262 0.0575,9.4e-4 -0.50106,-0.63861 -1.24123,-1.42123 z m 0.87729,-0.049 c -2.55042,-3.34377 -5.55177,-9.195111 -9.53209,-18.583429 -1.5609,-3.68167 -2.87701,-6.65491 -2.9247,-6.60722 -0.17241,0.1724 3.83066,10.76596 5.28227,13.978758 1.7833,3.94694 4.25037,8.111581 6.18812,10.446111 1.50686,1.81539 2.19368,2.3486 0.9864,0.76578 z m 0.71901,-0.18169 c -0.79883,-0.99077 -3.51009,-6.354281 -7.33874,-14.517759 -2.37217,-5.05798 -4.51812,-9.47148 -4.76877,-9.80778 -0.25066,-0.33629 -0.38975,-0.43285 -0.3091,-0.21457 0.49681,1.3446 5.35584,12.514768 6.46296,14.857358 1.93867,4.1021 5.51454,10.013481 6.05728,10.013481 0.0897,0 0.043,-0.14883 -0.10363,-0.33073 z m 0.10622,-1.45521 c -0.49283,-0.98227 -1.87887,-3.92906 -3.08008,-6.548441 -3.66182,-7.984968 -8.38093,-17.065618 -8.86882,-17.065618 -0.0648,0 0.70086,1.63711 1.70148,3.63802 1.00062,2.00091 2.37913,4.88817 3.06335,6.41614 3.00397,6.708318 7.48707,15.345839 7.96489,15.345839 0.0634,0 -0.288,-0.80368 -0.78082,-1.78594 z m 1.02528,-1.70023 c -2.10205,-7.335561 -7.05738,-17.080699 -10.80669,-21.252369 -0.62281,-0.69298 -0.26541,-0.0114 1.03526,1.97439 2.44668,3.73537 6.10878,11.120308 8.42429,16.988278 0.95723,2.425821 1.74042,4.559021 1.74042,4.740451 0,0.18142 0.0706,0.25929 0.15683,0.17304 0.0863,-0.0863 -0.1613,-1.26696 -0.55011,-2.62379 z m 0.79866,-0.25458 c -1.58086,-7.801841 -5.78735,-15.909799 -11.23703,-21.659249 l -1.63013,-1.71979 1.57341,1.98437 c 2.58552,3.26084 4.45418,6.25601 6.52033,10.45104 2.01578,4.092778 4.05174,9.404649 4.65607,12.147839 0.18956,0.86048 0.39136,1.42442 0.44843,1.2532 0.0571,-0.17122 -0.0919,-1.27705 -0.33108,-2.45741 z m 0.38601,-2.620861 c -1.46534,-7.19055 -5.47545,-14.287648 -10.84294,-19.189858 l -1.71717,-1.56832 1.93765,2.11666 c 5.07483,5.54368 9.81283,15.195178 10.7156,21.828129 0.29101,2.1381 0.30998,2.18231 0.38479,0.89687 0.0433,-0.74365 -0.17179,-2.58122 -0.47793,-4.083481 z m -2.92346,0.776701 c -2.34184,-5.901061 -6.21365,-13.635199 -8.69449,-17.367699 -1.18485,-1.78263 -2.22384,-3.24114 -2.30887,-3.24114 -0.085,0 0.0605,0.32742 0.32348,0.7276 2.19231,3.33655 4.52208,7.8747 9.10475,17.735078 1.64211,3.533281 3.03192,6.377881 3.08845,6.321341 0.0565,-0.0565 -0.62446,-1.93537 -1.51332,-4.17518 z m 3.9150995,0.75626 c -0.10526,-2.428261 -0.3175295,-3.838371 -0.8463895,-5.622401 -1.68649,-5.689158 -5.41839,-11.430088 -9.7512,-15.000628 -1.18726,-0.97838 -1.08703,-0.82651 0.74477,1.12847 5.48718,5.85618 9.63018,14.905798 9.65157,21.082059 0.003,0.90951 0.0813,1.65365 0.1737395,1.65365 0.0924,0 0.10478,-1.45852 0.0275,-3.24115 z m 0.227771,-6.074281 c -1.4385905,-5.669518 -4.9481505,-10.936668 -9.7986905,-14.705908 -1.37982,-1.07223 -1.26572,-0.91701 0.94111,1.28027 5.56467,5.54059 8.9942905,12.903638 9.2838305,19.931449 0.0307,0.74493 0.094,0.16378 0.14065,-1.29143 0.0686,-2.138681 -0.0401,-3.138161 -0.5669,-5.214381 z m 1.08036,7.149151 c -0.0845,-0.21107 -0.14716,-0.14837 -0.15985,0.15985 -0.0115,0.27892 0.0511,0.43519 0.13896,0.34727 0.0879,-0.0879 0.0973,-0.31612 0.0209,-0.50712 z m 0.35094,-5.838091 c -0.94833,-6.566008 -4.8969605,-12.755098 -10.4535605,-16.384938 -0.87312,-0.57037 -1.17078,-0.70369 -0.66145,-0.29626 6.67572,5.34016 10.7287205,12.994108 10.8805705,20.547609 l 0.0327,1.62441 0.24902,-1.719791 c 0.16766,-1.15784 0.15222,-2.39004 -0.0472,-3.77103 z M -76.725898,67.459339 c 3.666164,-1.21957 7.286331,-4.01589 10.411984,-8.04249 1.69772,-2.18709 7.142301,-10.21647 6.9276,-10.21647 -0.06493,0 -1.522856,1.8157 -3.23984,4.03489 -6.59263,8.52094 -11.171422,12.04707 -16.777893,12.92067 -5.185293,0.80797 -10.742743,-1.00314 -15.59143,-5.08107 -1.74096,-1.46422 -1.88165,-1.54029 -1.14693,-0.62015 3.01757,3.77908 7.873587,6.73809 12.524007,7.63147 1.42474,0.27371 5.224043,-0.0718 6.892502,-0.62685 z m -1.261041,-2.00658 c 4.888913,-1.26684 8.957683,-4.64908 14.950783,-12.42812 l 3.252034,-4.22114 -2.705817,2.91042 c -9.05261,9.73712 -13.276764,12.35379 -19.936561,12.3498 -5.19145,-0.003 -10.290037,-2.17073 -14.665997,-6.23512 l -1.17097,-1.0876 0.81043,1.05834 c 2.58517,3.37591 6.67795,6.16472 10.924217,7.44373 2.44104,0.73525 6.16123,0.82658 8.541881,0.20969 z m -0.720547,-2.23359 c 4.505022,-1.15219 7.882951,-3.47939 13.247088,-9.12649 4.666431,-4.91259 5.150341,-5.68023 1.408428,-2.23425 -6.817804,6.27863 -9.934298,8.30129 -14.647815,9.50672 -6.421615,1.64227 -13.598062,-0.54888 -19.459502,-5.94147 -1.40652,-1.29401 -1.42273,-1.30103 -0.62415,-0.27018 1.93727,2.50072 4.93438,4.93605 7.889,6.41029 4.273037,2.13208 8.224467,2.66881 12.186951,1.65538 z m 0.513046,-2.39064 c 2.212419,-0.68854 4.463723,-1.79342 6.581667,-3.23012 1.802788,-1.22292 6.42983,-5.18746 7.970417,-6.82922 0.837437,-0.89243 0.47848,-0.68427 -1.719792,0.9973 -5.817871,4.4504 -9.599239,6.54072 -13.541935,7.48591 -6.793077,1.62853 -14.472154,-0.64061 -20.030224,-5.91887 -1.821733,-1.73002 -1.897073,-1.59371 -0.23289,0.42139 2.90324,3.51543 8.576487,6.75154 13.367067,7.62477 1.93978,0.35359 5.53588,0.093 7.60569,-0.55116 z m -0.274093,-2.09463 c 3.67002,-1.06109 6.619946,-2.71902 11.91576,-6.69696 3.23885,-2.43285 4.239773,-3.26472 3.023748,-2.51304 -0.37423,0.23132 -1.935635,1.19646 -3.469787,2.14475 -3.701744,2.28812 -7.513274,4.17904 -10.269587,5.0948 -2.083908,0.69235 -2.559641,0.74795 -6.482291,0.75756 -4.1982,0.0103 -4.25587,0.002 -6.94861,-0.94582 -3.032167,-1.06777 -6.091937,-2.80638 -8.389817,-4.76724 -0.84146,-0.71804 -1.604083,-1.23059 -1.694713,-1.13899 -0.24204,0.24464 3.089353,3.32301 5.001093,4.62124 2.9164,1.98049 6.749287,3.549 9.915377,4.05761 1.54027,0.24743 5.57864,-0.0876 7.398827,-0.61391 z m 50.328791,0.20645 c -0.0845,-0.21107 -0.14715,-0.14837 -0.15985,0.15985 -0.0115,0.27892 0.051,0.43519 0.13896,0.34727 0.0879,-0.0879 0.0973,-0.31612 0.0209,-0.50712 z m 4.31718,-0.84403 c 0,-0.055 -0.20836,-0.26331 -0.46302,-0.46303 -0.41965,-0.3291 -0.429,-0.31974 -0.0999,0.0999 0.34564,0.44073 0.56291,0.58089 0.56291,0.36313 z m -57.150008,-0.96592 c 2.335443,-0.36401 5.519529,-1.42889 8.069797,-2.69884 1.961592,-0.9768 7.805208,-4.40591 7.805208,-4.58019 0,-0.0423 -1.761839,0.74065 -3.915199,1.73984 -8.833426,4.09883 -14.154966,4.97949 -20.558756,3.40229 -2.713757,-0.66838 -7.416597,-2.99667 -9.785557,-4.84463 -1.016423,-0.7929 -1.901253,-1.38842 -1.966293,-1.32339 -0.21746,0.21747 1.675983,2.01604 3.784023,3.59441 5.16,3.86351 11.123067,5.55901 16.566777,4.71051 z m 2.116671,-2.35727 c 1.236927,-0.27567 3.141928,-0.82188 4.233334,-1.21379 2.139616,-0.76832 8.795826,-3.85341 8.643193,-4.00605 -0.05105,-0.0511 -1.344606,0.37738 -2.874568,0.95206 -9.774076,3.67131 -16.83014,4.15905 -23.716227,1.63934 -2.65738,-0.97237 -5.03599,-2.27381 -7.33196,-4.01162 -1.834543,-1.38856 -2.189273,-1.3514 -0.918273,0.0962 1.996263,2.27362 7.959083,5.56036 11.79836,6.50333 2.82918,0.69488 7.15274,0.71212 10.166141,0.0405 z m -0.589179,-1.7531 c 2.917568,-0.43322 7.280559,-1.66292 10.643346,-2.99981 1.091407,-0.4339 1.91257,-0.79586 1.824807,-0.80437 -0.08776,-0.009 -1.516513,0.339 -3.175,0.77225 -8.874198,2.31821 -16.214885,2.47653 -22.062142,0.47582 -1.99221,-0.68166 -5.3716,-2.3594 -7.27933,-3.6139 -0.800363,-0.52632 -1.604043,-1.05215 -1.785943,-1.16852 -0.21346,-0.13656 -0.33073,-0.0658 -0.33073,0.19954 0,0.52669 3.547413,3.16002 5.970913,4.43235 2.15402,1.13086 6.012967,2.47818 8.081997,2.82178 2.2489,0.37346 5.09338,0.33309 8.112082,-0.11514 z m 4.425638,-2.34664 c 1.891771,-0.37621 3.975365,-0.86375 4.630208,-1.08343 l 1.190625,-0.39941 -1.190625,0.15736 c -10.188398,1.34653 -15.860128,1.19841 -21.432345,-0.55972 -2.56877,-0.81049 -6.30495,-2.61956 -8.531723,-4.13109 -1.34626,-0.91384 -1.52135,-0.9723 -1.52135,-0.50799 0,0.6261 4.245963,3.5525 6.894953,4.75213 2.185,0.98951 5.759557,2.0944 7.789427,2.40769 2.70953,0.41819 8.354347,0.12343 12.17083,-0.63554 z m 36.512499,-0.0382 c -3.586009,-0.82015 -18.113833,-2.276 -19.176675,-1.92172 -0.17498,0.0583 3.115689,0.44389 7.312599,0.85682 4.19691,0.41293 8.642776,0.89972 9.879706,1.08175 2.99315,0.44049 3.94857,0.43238 1.98437,-0.0169 z m 1.47958,-0.40015 c -2.54942,-1.01938 -11.314979,-2.12165 -16.341777,-2.05496 l -2.864885,0.038 3.307292,0.21409 c 4.70453,0.30453 10.58311,0.98535 13.36146,1.54743 2.70947,0.54814 3.45847,0.62353 2.53791,0.25544 z m -39.982079,-0.52634 c 1.720482,-0.157 4.030161,-0.42489 5.132622,-0.59531 1.806434,-0.27924 1.305823,-0.31008 -5.066991,-0.31212 -5.687871,-0.002 -7.589141,-0.0965 -9.717301,-0.48413 -4.754547,-0.86594 -9.981607,-2.86213 -13.55989,-5.17848 -1.44558,-0.93577 -1.65365,-1.00585 -1.65365,-0.55692 0,0.32991 0.54399,0.88015 1.52135,1.53883 6.925373,4.66725 14.24197,6.41872 23.34386,5.58813 z m 39.693129,-0.2734 c -2.17432,-0.77725 -5.615496,-1.49256 -8.693141,-1.80702 -2.594801,-0.26512 -10.570379,-0.39981 -10.334814,-0.17453 0.06063,0.058 2.584684,0.23978 5.609,0.40398 5.328185,0.28929 10.618485,0.9952 12.946885,1.72757 1.74754,0.54967 2.1085,0.43498 0.47207,-0.15 z m -24.572505,-0.16875 c 0.329108,-0.41964 0.31975,-0.429 -0.09989,-0.0999 -0.254662,0.19972 -0.463021,0.40808 -0.463021,0.46302 0,0.21776 0.217272,0.0776 0.562915,-0.36313 z m 24.884575,-0.48772 c -3.23484,-1.4771 -7.6027,-2.21889 -12.879781,-2.18737 -6.721641,0.0402 -6.962294,0.37061 -0.396875,0.54498 6.460879,0.17159 9.315066,0.57001 12.699996,1.7728 1.9946,0.70875 2.27536,0.64526 0.57666,-0.13041 z m -31.339982,0.26172 c -0.08792,-0.0879 -0.316122,-0.0973 -0.507118,-0.0209 -0.211067,0.0845 -0.148372,0.14715 0.159853,0.15985 0.278914,0.0115 0.435184,-0.0511 0.347265,-0.13897 z m 33.292002,-0.0802 c -0.24627,-0.39849 -4.1156,-1.93106 -6.232843,-2.46873 -2.368589,-0.6015 -8.513634,-0.88823 -11.244792,-0.52469 -1.635646,0.21771 -1.31099,0.25001 2.778125,0.27639 2.892607,0.0186 5.517386,0.18567 6.994281,0.44505 2.400379,0.42156 5.738379,1.43023 6.997439,2.11446 0.83276,0.45256 0.89929,0.46737 0.70779,0.15752 z m -66.822429,-0.81825 c -0.15576,-0.29104 -0.34273,-0.52916 -0.41549,-0.52916 -0.0728,0 -0.005,0.23812 0.15091,0.52916 0.15576,0.29105 0.34273,0.52917 0.41549,0.52917 0.0728,0 0.005,-0.23812 -0.15091,-0.52917 z m 28.839585,0.29831 2.778125,-0.16601 -4.47236,-0.19838 c -10.45173,-0.46358 -18.491807,-2.45925 -24.709107,-6.13316 -2.098313,-1.23993 -2.436243,-1.36812 -2.436243,-0.92419 0,0.60204 1.78335,1.81146 5.232373,3.54843 6.444357,3.24545 13.831517,4.45749 23.607212,3.87331 z m 37.967714,-0.2042 c -0.88654,-0.70069 -4.13953,-2.1685 -5.82084,-2.62648 -2.163237,-0.58925 -8.169538,-0.7958 -11.089292,-0.38134 -1.265844,0.17969 -2.26516,0.36232 -2.220703,0.40585 0.04446,0.0435 1.390518,-0.005 2.991247,-0.10701 5.876887,-0.3759 10.626778,0.31878 14.314848,2.09358 2.35729,1.13439 2.57376,1.2074 1.82474,0.6154 z m 0,-0.76424 c -1.25042,-1.0257 -4.32513,-2.4422 -6.350004,-2.9254 -2.088926,-0.49849 -7.43153,-0.58072 -9.392709,-0.14456 -0.951519,0.21162 -0.63271,0.23586 1.5875,0.12072 5.097081,-0.26433 10.150973,0.76351 13.268473,2.69849 1.69811,1.05399 1.95426,1.12642 0.88674,0.25075 z m -37.24011,0.22317 c -0.254661,-0.0666 -0.67138,-0.0666 -0.926042,0 -0.254661,0.0666 -0.0463,0.121 0.463021,0.121 0.509323,0 0.717683,-0.0544 0.463021,-0.121 z m -5.490104,-0.61942 c -9.129345,-1.33823 -17.198792,-3.95689 -22.784905,-7.39405 -1.19588,-0.73583 -1.29218,-0.75608 -1.29218,-0.27169 0,0.56189 0.95486,1.24714 4.101043,2.94311 5.58727,3.01185 14.288627,5.11872 21.43125,5.18916 1.719803,0.017 1.615869,-0.0164 -1.455208,-0.46653 z m 42.730214,-0.39494 c -1.3147,-1.13326 -4.29009,-2.60268 -6.217713,-3.07064 -1.923605,-0.46699 -7.356839,-0.39327 -9.260417,0.12565 l -1.455208,0.39669 1.455208,-0.178 c 2.613179,-0.31964 7.695231,-0.14699 9.525,0.32359 1.94665,0.50065 4.44769,1.63222 5.82083,2.6336 1.31161,0.95649 1.37713,0.84216 0.1323,-0.23089 z m -67.071879,-0.25854 c -0.187,-0.22531 -0.39952,-0.35013 -0.47228,-0.27737 -0.0728,0.0728 0.0207,0.31664 0.20769,0.54196 0.187,0.22531 0.39952,0.35013 0.47229,0.27737 0.0728,-0.0728 -0.0207,-0.31664 -0.2077,-0.54196 z m 27.318227,0.48623 c -0.181901,-0.0734 -0.479557,-0.0734 -0.661458,0 -0.181901,0.0734 -0.03307,0.13345 0.330729,0.13345 0.363802,0 0.51263,-0.06 0.330729,-0.13345 z m -1.785937,-0.26853 c -4.59595,-1.02308 -9.20925,-2.26425 -12.30313,-3.31007 -3.618867,-1.22327 -9.346387,-3.81987 -11.8401,-5.36776 -1.06339,-0.66007 -1.12448,-0.66946 -1.12448,-0.17298 0,1.29927 8.444013,5.29698 14.81667,7.01476 2.98301,0.80409 9.063484,1.9758 10.186456,1.96293 0.500822,-0.006 0.598465,-0.0526 0.264584,-0.12688 z m 41.407289,-0.92652 c -2.64836,-2.41119 -6.606417,-3.60026 -10.980204,-3.29863 -3.96131,0.27318 -4.334009,0.62451 -0.529167,0.49883 2.475488,-0.0818 3.979568,0.001 5.366076,0.29593 2.167315,0.46074 4.845075,1.6856 6.178625,2.82621 1.34694,1.15207 1.32065,0.91219 -0.0353,-0.32234 z m 0.24445,-0.57702 c -2.78681,-2.66698 -5.30104,-3.61508 -9.504863,-3.58422 -1.575423,0.0116 -3.204786,0.20452 -4.365625,0.51699 -1.018646,0.27419 -1.494896,0.435 -1.058333,0.35735 0.436562,-0.0777 2.28676,-0.20594 4.111551,-0.28509 4.98413,-0.21619 8.07731,0.72574 10.83741,3.30019 0.80036,0.74653 1.51474,1.3579 1.5875,1.35861 0.0728,7.1e-4 -0.65068,-0.74801 -1.60764,-1.66383 z m -20.159855,1.25828 c -0.08792,-0.0879 -0.316122,-0.0973 -0.507118,-0.0209 -0.211066,0.0845 -0.148372,0.14716 0.159853,0.15986 0.278915,0.0115 0.435184,-0.051 0.347265,-0.13897 z m -48.298584,-1.22039 c -0.18986,-0.18985 -0.31309,-0.20548 -0.31309,-0.0397 0,0.35316 0.3129,0.66606 0.48948,0.48948 0.0752,-0.0752 -0.004,-0.27759 -0.17639,-0.44979 z m 0.90824,-0.42223 c -0.37001,-0.37001 -0.42758,-0.37364 -0.42758,-0.0269 0,0.54359 0.61911,1.1627 0.755,0.75501 0.0551,-0.16527 -0.0923,-0.49291 -0.32742,-0.72808 z m 67.559279,-0.72666 c -1.49699,-1.53082 -4.34228,-2.93344 -6.680791,-3.29339 -1.842369,-0.28357 -5.019548,-0.0342 -6.66961,0.52345 l -0.79375,0.26827 0.926041,-0.11644 c 3.281717,-0.41265 4.178934,-0.43383 6.203523,-0.14644 2.594197,0.36825 5.238507,1.5195 6.893357,3.00116 1.47007,1.31623 1.52841,1.20236 0.12123,-0.23661 z m -17.258518,0.78178 c -0.08792,-0.0879 -0.316122,-0.0973 -0.507118,-0.0209 -0.211067,0.0845 -0.148372,0.14716 0.159853,0.15986 0.278915,0.0115 0.435184,-0.0511 0.347265,-0.13897 z m -51.534781,-1.31064 c -0.46983,-0.56611 -0.61796,-0.27183 -0.229,0.45494 0.20903,0.39058 0.37184,0.4928 0.44332,0.27835 0.0621,-0.18641 -0.0343,-0.51639 -0.21432,-0.73329 z m 1.10226,-0.46795 c -0.5223,-0.52229 -0.56041,-0.5269 -0.56041,-0.0677 0,0.27096 0.20836,0.64628 0.46302,0.83406 0.69014,0.50887 0.76708,-0.0966 0.0974,-0.76631 z m 67.305219,-0.36266 c -3.01265,-2.7823 -7.398437,-3.64307 -11.906248,-2.33678 l -1.322917,0.38336 1.322917,-0.18784 c 0.727604,-0.10332 2.573073,-0.17481 4.101042,-0.15888 3.305836,0.0345 4.982616,0.57149 7.335366,2.34933 1.97282,1.49075 2.12053,1.47528 0.46984,-0.0492 z m 1.21265,0.21536 c -0.86445,-1.21401 -2.39307,-2.43545 -3.9787,-3.17917 -1.32331,-0.62068 -1.76583,-0.68658 -4.509989,-0.67161 -2.162984,0.0118 -3.386949,0.14485 -4.233334,0.46021 -0.654844,0.24399 -0.892969,0.37498 -0.529167,0.29109 0.363803,-0.0839 1.971146,-0.21433 3.571876,-0.28986 2.521841,-0.11899 3.137104,-0.0606 4.608264,0.43763 1.84228,0.62385 3.41413,1.6053 4.63551,2.89437 0.97266,1.02656 1.14151,1.04879 0.43554,0.0573 z m -16.233264,0.33839 c -0.08792,-0.0879 -0.316122,-0.0973 -0.507118,-0.0209 -0.211067,0.0845 -0.148372,0.14716 0.159852,0.15986 0.278915,0.0115 0.435185,-0.0511 0.347266,-0.13897 z m -53.295245,-0.62523 c -0.17273,-0.66052 -0.87268,-1.29375 -0.87268,-0.7895 0,0.28872 0.7346,1.31 0.94228,1.31 0.0366,0 0.005,-0.23422 -0.0696,-0.5205 z m -1.35334,-0.33058 c -0.18986,-0.18985 -0.31309,-0.20547 -0.31309,-0.0397 0,0.35316 0.3129,0.66606 0.48948,0.48948 0.0752,-0.0752 -0.004,-0.2776 -0.17639,-0.4498 z m 2.59732,-0.19794 c 0,-0.28592 -0.23544,-0.64587 -0.52321,-0.79988 -0.44437,-0.23781 -0.49798,-0.20931 -0.3558,0.18913 0.17816,0.49927 0.61322,1.1306 0.77912,1.1306 0.0549,0 0.0999,-0.23393 0.0999,-0.51985 z m -2.56917,-0.80306 c -0.13274,-0.50761 -0.60583,-0.75554 -0.60583,-0.3175 0,0.18431 0.53948,0.84666 0.68961,0.84666 0.03,0 -0.008,-0.23812 -0.0838,-0.52916 z m 0.80648,-0.92753 c -0.66495,-0.49011 -0.79812,0.0256 -0.18269,0.70747 0.43464,0.48154 0.5003,0.49254 0.57957,0.097 0.0492,-0.24533 -0.12943,-0.60735 -0.39688,-0.80447 z m 1.32292,-0.5299 c -0.41489,-0.30643 -0.49939,-0.30056 -0.57566,0.04 -0.0492,0.21951 0.12943,0.56071 0.39687,0.75824 0.4149,0.30643 0.49939,0.30056 0.57567,-0.04 0.0492,-0.2195 -0.12943,-0.56071 -0.39688,-0.75823 z m -3.52898,-0.13007 c -0.15576,-0.29104 -0.34273,-0.52917 -0.41549,-0.52917 -0.0728,0 -0.005,0.23813 0.15091,0.52917 0.15576,0.29104 0.34273,0.52916 0.41549,0.52916 0.0728,0 0.005,-0.23812 -0.15091,-0.52916 z m 1.07046,-0.24192 c -0.16243,-0.30351 -0.41722,-0.55183 -0.56621,-0.55183 -0.26721,0 -0.1419,0.33968 0.3684,0.99858 0.39237,0.50663 0.53529,0.18383 0.19781,-0.44675 z m 1.07745,-0.63819 c -0.5223,-0.5223 -0.56041,-0.5269 -0.56041,-0.0678 0,0.27095 0.20836,0.64628 0.46302,0.83405 0.69014,0.50887 0.76708,-0.0966 0.0974,-0.7663 z m 2.08543,0.24908 c 0,-0.20155 -0.29766,-0.56148 -0.66146,-0.79985 -0.62851,-0.41182 -0.66146,-0.4074 -0.66146,0.0887 0,0.28717 0.20836,0.64348 0.46302,0.79181 0.63638,0.37066 0.8599,0.34969 0.8599,-0.0807 z m -4.49792,-0.82418 c -0.18699,-0.22532 -0.39952,-0.35013 -0.47228,-0.27737 -0.0728,0.0728 0.0207,0.31664 0.2077,0.54195 0.18699,0.22532 0.39952,0.35013 0.47228,0.27737 0.0728,-0.0728 -0.0207,-0.31664 -0.2077,-0.54195 z m 0.91072,-0.67839 c -0.65429,-0.72298 -0.81419,-0.41126 -0.2392,0.46629 0.30111,0.45956 0.52072,0.60413 0.59216,0.38982 0.0624,-0.18735 -0.0964,-0.5726 -0.35296,-0.85611 z m 1.9997,0.42881 c 0,-0.48945 -1.15115,-1.32405 -1.28255,-0.92987 -0.10411,0.31233 0.70271,1.31174 1.05897,1.31174 0.12297,0 0.22358,-0.17184 0.22358,-0.38187 z m 1.02006,-1.23782 c -0.57044,-0.43332 -0.63129,-0.43631 -0.71894,-0.0353 -0.0527,0.24093 0.18547,0.6662 0.52917,0.94506 0.59041,0.479 0.63011,0.48096 0.71893,0.0353 0.0531,-0.26649 -0.17707,-0.67759 -0.52916,-0.94505 z m -4.44461,-0.30589 c -0.33937,-0.32338 -0.52257,-0.40937 -0.40713,-0.19109 0.36875,0.69724 0.72776,1.07545 0.87812,0.92509 0.0803,-0.0803 -0.13163,-0.41062 -0.47099,-0.734 z m 1.39727,-0.32486 c -0.66495,-0.49011 -0.79812,0.0256 -0.18269,0.70747 0.43464,0.48154 0.5003,0.49253 0.57957,0.097 0.0492,-0.24534 -0.12943,-0.60735 -0.39688,-0.80447 z m 1.45984,-0.42758 c -0.56253,-0.42731 -0.63234,-0.43162 -0.71721,-0.0443 -0.0517,0.23598 0.18642,0.64208 0.52917,0.90245 0.56252,0.4273 0.63234,0.43162 0.7172,0.0443 0.0517,-0.23599 -0.18641,-0.64209 -0.52916,-0.90245 z m 2.9194,-4.46573 c 0.2866,-1.81901 1.23479,-6.64104 2.107083,-10.71562 1.92222,-8.97887 2.44129,-12.4089984 2.45162,-16.2007984 0.0125,-4.57668999 -0.75161,-7.71098 -2.58123,-10.58826 -1.027113,-1.61526 -1.392093,-1.83383 -0.657383,-0.39368 0.279303,0.54747 0.787733,1.88692 1.129863,2.97656 0.55131,1.75588 0.62042,2.47764 0.60774,6.3468 -0.0159,4.8623 -0.153,5.80574 -2.386153,16.4252084 -1.40047,6.65977 -2.2916,11.76067 -2.61555,14.97163 -0.15088,1.49549 -0.11415,1.66681 0.44134,2.05893 0.70379,0.4968 0.60469,0.81868 1.50267,-4.88077 z m -6.84988,4.10104 c -0.18699,-0.22531 -0.39952,-0.35013 -0.47228,-0.27737 -0.0728,0.0728 0.0207,0.31664 0.2077,0.54196 0.18699,0.22531 0.39952,0.35013 0.47228,0.27737 0.0728,-0.0728 -0.0207,-0.31664 -0.2077,-0.54196 z m 1.02444,-0.41899 c -0.21897,-0.13604 -0.40202,-0.11176 -0.46138,0.0612 -0.0541,0.15768 0.0649,0.38818 0.26459,0.51221 0.21897,0.13603 0.40201,0.11175 0.46137,-0.0612 0.0541,-0.15769 -0.065,-0.38819 -0.26458,-0.51221 z m 1.47525,-0.25778 c -0.55117,-0.60902 -0.91219,-0.66126 -0.91219,-0.13198 0,0.48945 1.15115,1.32405 1.28255,0.92987 0.0521,-0.15622 -0.11459,-0.51526 -0.37036,-0.79789 z m 3.42873,-9.77764 c 0.36403,-1.81715 1.25423,-6.17589 1.97821,-9.68607 0.723993,-3.51019 1.456263,-7.8328784 1.627273,-9.6059884 0.5003,-5.18733999 -0.22318,-9.50446 -2.163843,-12.912 -0.95723,-1.68077 -1.54729,-2.15298 -0.75866,-0.60715 1.0981,2.15245 1.616753,4.9055 1.621173,8.60521001 0.005,4.06510999 -0.390913,6.85123999 -2.160703,15.21116839 -1.68406,7.95497 -2.29963,11.50525 -2.66847,15.3903 l -0.29669,3.12507 0.62548,0.50648 0.62548,0.50649 0.45444,-3.61479 c 0.24994,-1.98814 0.75228,-5.10156 1.11631,-6.91872 z m -7.21851,9.19323 c -0.2613,-0.25936 -0.29169,-0.22897 -0.14811,0.14811 0.0994,0.26094 0.24731,0.40779 0.32877,0.32632 0.0815,-0.0815 1.7e-4,-0.29495 -0.18066,-0.47443 z m 0.92393,-0.409 c -0.37002,-0.37001 -0.42759,-0.37364 -0.42759,-0.0269 0,0.54359 0.61911,1.1627 0.75501,0.75501 0.0551,-0.16527 -0.0923,-0.49291 -0.32742,-0.72808 z m 1.41711,-0.1908 c -0.1771,-0.21338 -0.42648,-0.38798 -0.55418,-0.38798 -0.39788,0 -0.25451,0.58667 0.23083,0.94453 0.55301,0.40776 0.78799,0.003 0.32335,-0.55655 z m 2.27809,-5.41506 c 0.22487,-1.67349 1.00267,-5.90021 1.72846,-9.39271 2.55551,-12.2972384 2.68598,-13.1422484 2.71647,-17.5947884 0.0247,-3.60928 -0.0462,-4.33819 -0.59133,-6.07874 -0.69891,-2.23152 -1.56898,-4.06257 -2.39312,-5.0362796 -0.51044,-0.60308 -0.50196,-0.53559 0.10007,0.7962696 1.22595,2.71216 1.54206,4.90146 1.38939,9.62238001 -0.14437,4.46426999 -0.24499,5.09801999 -2.68731,16.92550839 -1.22893,5.95134 -2.00329,11.50881 -2.00385,14.38138 -2.7e-4,1.39913 0.0867,1.69982 0.59499,2.0572 0.59525,0.41852 0.59532,0.41839 0.66635,-1.10947 0.0391,-0.84042 0.25501,-2.89726 0.47988,-4.57075 z m -5.02934,4.29318 c -0.45714,-0.43662 -0.46423,-0.42952 -0.16125,0.16125 0.17431,0.33989 0.38949,0.54541 0.47817,0.45672 0.0887,-0.0887 -0.0539,-0.36677 -0.31692,-0.61797 z m 1.06955,-0.27482 c -0.37001,-0.37001 -0.42758,-0.37364 -0.42758,-0.0269 0,0.54359 0.61911,1.1627 0.755,0.75501 0.0551,-0.16527 -0.0923,-0.49291 -0.32742,-0.72808 z m 2.0364,-2.497 c 0.1771,-3.49145 0.95859,-8.41601 2.40378,-15.1474 1.94266,-9.0484484 2.12168,-10.3030284 2.13303,-14.94895839 0.009,-3.85416001 -0.0619,-4.59811001 -0.6086,-6.35000001 -0.63058,-2.02065 -1.82466,-4.4979096 -2.16807,-4.4979096 -0.10433,0 0.0873,0.76317 0.4259,1.6959296 1.7319,4.77135 1.47846,9.91090001 -1.08033,21.9073784 -1.44993,6.79782 -2.21604,11.77057 -2.41058,15.64694 -0.15582,3.10483 -0.12068,3.67476 0.26264,4.25978 0.24339,0.37146 0.54047,0.67538 0.66018,0.67538 0.11971,0 0.29163,-1.45851 0.38205,-3.24114 z m -3.35931,1.17408 c -0.37002,-0.37001 -0.42759,-0.37363 -0.42759,-0.0269 0,0.54359 0.61911,1.1627 0.75501,0.75501 0.0551,-0.16527 -0.0923,-0.4929 -0.32742,-0.72808 z m 1.68908,-2.15272 c 0,-3.90507 0.53341,-7.71677 2.23393,-15.96355 2.36314,-11.4601084 2.73359,-15.4008584 1.84995,-19.6788784 -0.47,-2.27538 -1.52204,-4.8523696 -1.98096,-4.8523696 -0.18481,0 -0.23585,0.18471 -0.12796,0.46302 0.48263,1.24496 0.92569,3.4613996 1.085,5.4277296 0.25375,3.1319 -0.22525,6.93581001 -1.99023,15.805078 -2.12948,10.7009804 -2.22986,11.4352304 -2.24609,16.4296504 -0.0109,3.34964 0.0719,4.49488 0.34886,4.82864 0.19972,0.24065 0.46761,0.43754 0.59531,0.43754 0.1277,0 0.23219,-1.30358 0.23219,-2.89686 z m -1.42949,-2.99099 c 0.0279,-5.23028 0.25622,-6.91188 2.21863,-16.3371404 1.65956,-7.970748 1.93727,-10.20924799 1.78793,-14.411878 -0.12123,-3.41179 -0.2484,-4.17787 -1.04438,-6.2917696 -0.41066,-1.0906 -1.0412,-0.97215 -0.70423,0.13229 0.44133,1.4465296 0.58772,7.0270596 0.25159,9.5911496 -0.17169,1.30969001 -0.9537,5.65547 -1.73781,9.65729 -1.62417,8.2892284 -1.89156,9.9832184 -2.12998,13.4937484 -0.21691,3.19389 0.24602,7.85081 0.84637,8.51419 0.23973,0.2649 0.44719,0.48125 0.46102,0.48076 0.0138,-4.8e-4 0.0367,-2.17337 0.0509,-4.82864 z m -1.48093,4.03577 c -0.15576,-0.29104 -0.34273,-0.52917 -0.41549,-0.52917 -0.0728,0 -0.005,0.23813 0.15091,0.52917 0.15576,0.29104 0.34273,0.52917 0.41549,0.52917 0.0728,0 0.005,-0.23813 -0.15091,-0.52917 z m -1.29009,-1.39347 c -0.2613,-0.25936 -0.29169,-0.22897 -0.14811,0.14811 0.0994,0.26094 0.24731,0.40778 0.32877,0.32632 0.0815,-0.0815 1.7e-4,-0.29495 -0.18066,-0.47443 z m 1.1578,-4.62575 c 0,-5.69225 -0.0279,-5.47562 2.12158,-16.4703584 1.63086,-8.3419 2.09751,-12.04788 1.85161,-14.70471 -0.25544,-2.7599596 -0.7457,-4.7248396 -1.20069,-4.8122196 -0.33352,-0.064 -0.39403,0.65781 -0.41008,4.8922596 -0.0187,4.93698 -0.0279,5.01271 -1.49823,12.37571 -0.81367,4.074578 -1.62845,8.3608284 -1.81062,9.5249984 -0.66219,4.23165 -0.28202,12.97997 0.61226,14.08906 0.14667,0.1819 0.28186,0.33075 0.30042,0.33078 0.0186,3e-5 0.0337,-2.35146 0.0337,-5.22552 z m -1.44857,1.50078 c -0.63981,-4.92964 -0.22878,-9.38193 1.8423,-19.9555184 0.71259,-3.63802 1.43724,-7.68614 1.61033,-8.99583 0.36046,-2.72746 0.17769,-7.9100296 -0.29923,-8.4846896 -0.74387,-0.8963 -0.91104,-0.38479 -0.93544,2.8622996 -0.0276,3.6723 -0.21978,5.08382 -1.82818,13.4276 -0.63116,3.27422 -1.28572,6.9633984 -1.45459,8.1981884 -0.42357,3.09725 -0.36537,8.67319 0.11922,11.42188 0.69005,3.9142 1.40538,5.06865 0.94559,1.52607 z m -1.3305,-0.80445 c -0.4726,-1.93018 -0.63604,-8.62068 -0.28114,-11.50856 0.17679,-1.43848 0.90104,-5.5919884 1.60945,-9.2300084 1.60225,-8.22825 1.8953,-10.45301 1.79489,-13.6260396 -0.0752,-2.37725 -0.11183,-2.51812 -0.67486,-2.59809 -0.55566,-0.0789 -0.59531,0.0127 -0.59531,1.37552 0,2.2531796 -0.70403,7.1134996 -1.97774,13.6534296 -1.89084,9.7086584 -2.0718,13.5601284 -0.91041,19.3765684 0.54052,2.70697 0.96128,4.0743 1.18494,3.85064 0.0737,-0.0737 0.006,-0.65579 -0.14982,-1.29346 z m -1.21537,-1.29897 c -1.38698,-5.34693 -1.18027,-11.56223 0.69056,-20.7643484 1.29416,-6.36562 1.84856,-10.15398 1.84862,-12.6320196 5e-5,-2.29307 -0.006,-2.3151 -0.66141,-2.3151 -0.6125,0 -0.66157,0.093 -0.66302,1.25677 -0.002,1.6520596 -0.53202,5.0699396 -1.81681,11.71697961 -1.41268,7.30863999 -1.76634,11.11780839 -1.37726,14.83374839 0.27936,2.66808 1.17084,6.78811 1.84061,8.50656 0.44743,1.14798 0.51578,0.85105 0.13871,-0.60259 z m -1.83868,-3.72479 c -0.58447,-2.34962 -0.79726,-8.8336 -0.39565,-12.0560084 0.17826,-1.43026 0.84059,-5.27937 1.47186,-8.55359 0.90502,-4.69413 1.7142,-9.9972396 1.7142,-11.2343596 0,-0.0785 -0.34181,-0.14272 -0.75958,-0.14272 -0.73568,0 -0.76537,0.052 -0.944,1.65365 -0.10143,0.9095 -0.71243,4.4637596 -1.35778,7.8983496 -2.13124,11.34275 -2.16711,15.4132784 -0.19389,22.0013884 0.79802,2.6644 1.08679,2.93357 0.46484,0.43329 z m -1.60845,-2.88504 c -0.55333,-2.42987 -0.7654,-9.1295984 -0.38052,-12.0217784 0.17303,-1.30026 0.78826,-4.87147999 1.36717,-7.93605 0.57892,-3.06456 1.12536,-6.32573 1.21432,-7.2470396 l 0.16175,-1.67511 -0.74474,0.0876 -0.74473,0.0876 -0.88017,4.7624996 c -1.73515,9.38868 -1.77428,9.69214 -1.79125,13.89063 -0.012,2.978188 0.11154,4.6972584 0.45138,6.2786284 0.51671,2.40438 1.49609,5.73204 1.64361,5.58451 0.0518,-0.0518 -0.0817,-0.86701 -0.29682,-1.8115 z m -1.59644,-2.90789 c -0.54293,-2.43851 -0.74728,-8.4086084 -0.39118,-11.4280584 0.1642,-1.39229999 0.70654,-4.7186 1.20519,-7.3918 1.44028,-7.7210896 1.4018,-7.1093096 0.44709,-7.1093096 -0.62697,0 -0.84171,0.13564 -0.94251,0.59532 -0.13839,0.63111 -1.19145,6.3978896 -1.77559,9.7234296 -0.56787,3.23297 -0.42984,9.71205 0.26773,12.5677084 1.02629,4.2013 2.0044,6.70378 1.18927,3.04271 z m 2.02655,-26.436688 c 0,-0.13362 0.0756,-0.44002 0.16805,-0.68089 0.13936,-0.36315 0.0151,-0.42333 -0.7276,-0.35237 -0.69526,0.0664 -0.91458,0.21877 -0.98021,0.68089 -0.0719,0.50643 0.0367,0.59531 0.72761,0.59531 0.44668,0 0.81215,-0.10932 0.81215,-0.24294 z m 9.88526,-0.15394 c -0.0838,-0.21828 -0.31815,-0.39687 -0.52086,-0.39687 -0.52795,0 -0.45571,0.46759 0.0944,0.61137 0.25467,0.0666 0.48905,0.13481 0.52087,0.15169 0.0318,0.0169 -0.0107,-0.1479 -0.0945,-0.36619 z m 1.09495,0.1323 c -0.0899,-0.14552 -0.27556,-0.26459 -0.41249,-0.26459 -0.13693,0 -0.24897,0.11907 -0.24897,0.26459 0,0.14552 0.18562,0.26458 0.41249,0.26458 0.22687,0 0.33891,-0.11906 0.24897,-0.26458 z m -8.86354,-0.52917 c 0,-0.41157 -0.17639,-0.52917 -0.79375,-0.52917 -0.61736,0 -0.79375,0.1176 -0.79375,0.52917 0,0.41157 0.17639,0.52917 0.79375,0.52917 0.61736,0 0.79375,-0.1176 0.79375,-0.52917 z m 1.85208,0 c 0,-0.41157 -0.17639,-0.52917 -0.79375,-0.52917 -0.61736,0 -0.79375,0.1176 -0.79375,0.52917 0,0.41157 0.17639,0.52917 0.79375,0.52917 0.61736,0 0.79375,-0.1176 0.79375,-0.52917 z m 1.5875,0 c 0,-0.38806 -0.17639,-0.52917 -0.66146,-0.52917 -0.48507,0 -0.66146,0.14111 -0.66146,0.52917 0,0.38806 0.17639,0.52917 0.66146,0.52917 0.48507,0 0.66146,-0.14111 0.66146,-0.52917 z m 1.5875,0 c 0,-0.38257 -0.17639,-0.52917 -0.63669,-0.52917 -0.50642,0 -0.60837,0.10827 -0.49831,0.52917 0.0766,0.29287 0.3609,0.52917 0.63669,0.52917 0.32192,0 0.49831,-0.18732 0.49831,-0.52917 z m 1.4186,0.13229 c -0.0838,-0.21828 -0.37395,-0.39687 -0.64485,-0.39687 -0.32913,0 -0.44203,0.13168 -0.34026,0.39687 0.0838,0.21828 0.37394,0.39688 0.64485,0.39688 0.32912,0 0.44202,-0.13169 0.34026,-0.39688 z m 0.69807,-0.89773 c 0,-0.12995 -0.17253,-0.30248 -0.3834,-0.3834 -0.25626,-0.0983 -0.33461,-0.02 -0.23628,0.23627 0.16059,0.4185 0.61968,0.5275 0.61968,0.14713 z m -2.38125,-0.39688 c 0,-0.20271 -0.18834,-0.44083 -0.41852,-0.529164 -0.60706,-0.23295 -0.63982,-0.214079 -0.63982,0.368564 0,0.35278 0.17639,0.52917 0.52917,0.52917 0.29104,0 0.52917,-0.16586 0.52917,-0.36857 z m 1.32291,0.10399 c 0,-0.14552 -0.0498,-0.26459 -0.11065,-0.26459 -0.0609,0 -0.30033,-0.0728 -0.53217,-0.16175 -0.30851,-0.11839 -0.37765,-0.0475 -0.25791,0.26459 0.17763,0.4629 0.90073,0.59275 0.90073,0.16175 z m -7.98524,-0.595316 c -0.0619,-0.436065 -0.26149,-0.595312 -0.74601,-0.595312 -0.48451,0 -0.68407,0.159247 -0.746,0.595312 -0.0723,0.508886 0.036,0.595316 0.746,0.595316 0.70998,0 0.81828,-0.0864 0.74601,-0.595316 z m 1.89983,0.06615 c 0,-0.38115 -0.17639,-0.529167 -0.6306,-0.529167 -0.40809,0 -0.67943,0.186724 -0.76898,0.529167 -0.11494,0.43953 -0.008,0.52917 0.6306,0.52917 0.59259,0 0.76898,-0.12138 0.76898,-0.52917 z m 1.85208,0.41851 c 0,-0.478234 -0.40721,-0.947677 -0.82206,-0.947677 -0.32447,0 -0.50086,0.186358 -0.50086,0.529167 0,0.38806 0.17639,0.52917 0.66146,0.52917 0.3638,0 0.66146,-0.0498 0.66146,-0.11066 z m 1.4286,-0.26015 c -0.0783,-0.203937 -0.37218,-0.430916 -0.65315,-0.504392 -0.37283,-0.0975 -0.51087,0.0027 -0.51087,0.370802 0,0.35992 0.18708,0.5044 0.65316,0.5044 0.45147,0 0.60921,-0.1145 0.51086,-0.37081 z m 3.3339,-0.422943 c 0,-0.145521 -0.12609,-0.264584 -0.2802,-0.264584 -0.15411,0 -0.20661,0.119063 -0.11668,0.264584 0.0899,0.14552 0.21603,0.264583 0.2802,0.264583 0.0642,0 0.11668,-0.119063 0.11668,-0.264583 z m -1.17975,-0.511564 c -0.0959,-0.155203 -0.30101,-0.282186 -0.45576,-0.282186 -0.17545,0 -0.15537,0.151813 0.0533,0.403269 0.36288,0.437252 0.68721,0.339674 0.40244,-0.121083 z m -0.93692,-0.02591 c 0,-0.31675 -0.74629,-0.656517 -0.96394,-0.43886 -0.2317,0.231698 0.1613,0.711747 0.58268,0.711747 0.2097,0 0.38126,-0.122799 0.38126,-0.272887 z m -2.91041,-0.520863 c 0,-0.388055 -0.17639,-0.529166 -0.66146,-0.529166 -0.62257,0 -0.88673,0.480287 -0.48507,0.881944 0.39477,0.394769 1.14653,0.163458 1.14653,-0.352778 z m 1.4286,0.158364 c -0.12015,-0.31309 -1.16402,-0.808213 -1.16402,-0.552108 0,0.452129 0.4151,0.922911 0.81375,0.922911 0.31374,0 0.4409,-0.134621 0.35027,-0.370803 z m -4.6036,-0.392088 c 0,-0.293105 -0.24515,-0.564006 -0.59532,-0.657846 -0.92207,-0.247105 -0.99218,-0.212146 -0.99218,0.494695 0,0.558565 0.12347,0.661459 0.79375,0.661459 0.60097,0 0.79375,-0.121022 0.79375,-0.498308 z m 1.5875,-0.03086 c 0,-0.388056 -0.17639,-0.529167 -0.66146,-0.529167 -0.48507,0 -0.66146,0.141111 -0.66146,0.529167 0,0.388056 0.17639,0.529167 0.66146,0.529167 0.48507,0 0.66146,-0.141111 0.66146,-0.529167 z m 5.02708,-0.116677 c 0,-0.06417 -0.11906,-0.190261 -0.26458,-0.280198 -0.14552,-0.08994 -0.26459,-0.03743 -0.26459,0.116677 0,0.154109 0.11907,0.280198 0.26459,0.280198 0.14552,0 0.26458,-0.05251 0.26458,-0.116677 z m -1.19063,-0.41249 c -0.0899,-0.14552 -0.27555,-0.264583 -0.41249,-0.264583 -0.13693,0 -0.24896,0.119063 -0.24896,0.264583 0,0.145521 0.18562,0.264584 0.41249,0.264584 0.22687,0 0.3389,-0.119063 0.24896,-0.264584 z m -2.51354,-0.529166 c 0,-0.352778 -0.17639,-0.529167 -0.52916,-0.529167 -0.65105,0 -0.7046,0.709106 -0.0661,0.875949 0.25466,0.06655 0.49279,0.134812 0.52917,0.151692 0.0364,0.01688 0.0661,-0.207433 0.0661,-0.498474 z m 1.32292,0.132291 c 0,-0.218281 -0.17859,-0.396875 -0.39688,-0.396875 -0.21828,0 -0.39687,0.178594 -0.39687,0.396875 0,0.218282 0.17859,0.396875 0.39687,0.396875 0.21829,0 0.39688,-0.178593 0.39688,-0.396875 z m -2.69258,-0.300869 c -0.0471,-0.238238 -0.35344,-0.532058 -0.68086,-0.652932 -0.51591,-0.190458 -0.59531,-0.132683 -0.59531,0.433161 0,0.525033 0.13337,0.652932 0.68086,0.652932 0.489,0 0.65675,-0.122058 0.59531,-0.433161 z m -1.54075,-0.234846 c 0,-0.221883 -0.30541,-0.519539 -0.67869,-0.661458 -0.91407,-0.347531 -0.90881,-0.349864 -0.90881,0.403423 0,0.558565 0.12347,0.661459 0.79375,0.661459 0.53489,0 0.79375,-0.131564 0.79375,-0.403424 z m 5.02708,-0.09744 c 0,-0.129951 -0.19543,-0.311271 -0.4343,-0.402931 -0.36313,-0.139348 -0.3795,-0.100631 -0.0999,0.236275 0.38103,0.459117 0.53419,0.5069 0.53419,0.166656 z m -1.05833,-0.283581 c 0,-0.140401 -0.23813,-0.382715 -0.52917,-0.538476 -0.63541,-0.34006 -0.68064,-0.189274 -0.11339,0.377976 0.47926,0.479262 0.64256,0.520051 0.64256,0.1605 z m -1.38894,-0.604622 c -0.0606,-0.181901 -0.3082,-0.369144 -0.55029,-0.416096 -0.30695,-0.05953 -0.39184,0.04057 -0.2805,0.330729 0.1877,0.489121 0.99277,0.571846 0.83079,0.08537 z m -1.2569,-0.302421 c 0,-0.202713 -0.18833,-0.440838 -0.41851,-0.529167 -0.60706,-0.23295 -0.63982,-0.214079 -0.63982,0.368567 0,0.352778 0.17639,0.529167 0.52917,0.529167 0.29104,0 0.52916,-0.165855 0.52916,-0.368567 z m -1.5875,-0.394339 c 0,-0.321436 -0.23479,-0.543205 -0.66146,-0.624768 -0.5545,-0.106 -0.66145,-0.02543 -0.66145,0.498323 0,0.49003 0.14265,0.624768 0.66145,0.624768 0.47143,0 0.66146,-0.143168 0.66146,-0.498323 z m 3.70417,0.133845 c 0,-0.05494 -0.18132,-0.250377 -0.40293,-0.434299 -0.33691,-0.279607 -0.37563,-0.263238 -0.23628,0.09989 0.14232,0.370876 0.63921,0.630825 0.63921,0.334404 z m -1.32292,-0.826147 c -0.18115,-0.218281 -0.43012,-0.396875 -0.55326,-0.396875 -0.12313,0 -0.15535,0.178594 -0.0716,0.396875 0.0838,0.218281 0.33273,0.396875 0.55326,0.396875 0.32641,0 0.33972,-0.07379 0.0716,-0.396875 z m -1.05833,-0.09989 c 0,-0.333512 -0.77668,-0.931413 -0.96512,-0.742969 -0.27095,0.270948 0.13341,0.975155 0.55994,0.975155 0.22285,0 0.40518,-0.104483 0.40518,-0.232186 z m -1.32292,-0.278081 c 0,-0.318201 -0.75903,-1.077232 -1.07723,-1.077232 -0.44805,0 -0.2542,1.017308 0.21734,1.140532 0.76525,0.199982 0.85989,0.193014 0.85989,-0.0633 z m 1.99526,-0.795046 c -0.0959,-0.155203 -0.30102,-0.282186 -0.45577,-0.282186 -0.17544,0 -0.15537,0.151813 0.0533,0.403268 0.36289,0.437252 0.68721,0.339675 0.40245,-0.121082 z m -1.49999,-0.833474 c -0.21897,-0.136038 -0.40201,-0.111758 -0.46137,0.0612 -0.0541,0.157687 0.065,0.388181 0.26458,0.512209 0.21897,0.136038 0.40202,0.111757 0.46138,-0.0612 0.0541,-0.157688 -0.065,-0.388182 -0.26459,-0.512209 z m -1.02443,-0.242462 c -0.32159,-0.600895 -0.79375,-0.705819 -0.79375,-0.176389 0,0.451943 0.25695,0.705555 0.71486,0.705555 0.2801,0 0.29796,-0.119821 0.0789,-0.529166 z m 0.78844,-0.667853 c -0.18408,-0.221798 -0.40357,-0.334386 -0.48776,-0.250197 -0.0842,0.08419 0.0221,0.263837 0.23615,0.399218 0.56011,0.354227 0.6333,0.310883 0.25161,-0.149021 z m -1.35151,-0.941769 c -0.21897,-0.136038 -0.40201,-0.111757 -0.46137,0.0612 -0.0541,0.157687 0.0649,0.388181 0.26458,0.512209 0.21897,0.136037 0.40202,0.111757 0.46138,-0.0612 0.0541,-0.157687 -0.065,-0.388181 -0.26459,-0.512209 z m -0.23068,-1.168503 c -0.187,-0.225315 -0.39953,-0.350132 -0.47229,-0.277371 -0.0728,0.07276 0.0207,0.316639 0.2077,0.541954 0.187,0.225315 0.39952,0.350132 0.47228,0.277371 0.0728,-0.07276 -0.0207,-0.31664 -0.20769,-0.541954 z"
       id="path1" /></g></svg>
